REM MD5 4467ae28e8831b755b8ed29088ae65a7
FILE "Pikiinya! Excellent (Japan).bin" BINARY
  TRACK 01 MODE2/2352
    INDEX 01 00:00:00
  TRACK 02 AUDIO
    INDEX 00 02:48:50
    INDEX 01 02:50:50
  TRACK 03 AUDIO
    INDEX 00 06:55:15
    INDEX 01 06:57:15
REM LEADOUT 10:59:73
